<svg width="24" height="24" viewBox="0 0 24 24" fill="none" xmlns="http://www.w3.org/2000/svg">
<path fill-rule="evenodd" clip-rule="evenodd" d="M13.0831 3.12903C12.6017 2.29032 11.3983 2.29032 10.9169 3.12903L1.16942 20.1129C0.688056 20.9516 1.28976 22 2.25248 22H21.7475C22.7102 22 23.3119 20.9516 22.8306 20.1129L13.0831 3.12903ZM12 4.26129L2.6857 20.4903H21.3143L12 4.26129Z" fill="#FFCA28"/>
<path d="M12.7548 15.8182C12.7401 16.0881 12.4988 16.3 12.2062 16.3H11.801C11.5086 16.3 11.2675 16.0884 11.2525 15.8187L10.8757 9.03328C10.8596 8.74328 11.1099 8.5 11.4243 8.5H12.5757C12.8899 8.5 13.1401 8.74297 13.1243 9.03278L12.7548 15.8182Z" fill="#FFCA28"/>
<path d="M13.125 18.0613C13.125 18.6866 12.6213 19.1935 12 19.1935C11.3787 19.1935 10.875 18.6866 10.875 18.0613C10.875 17.436 11.3787 16.929 12 16.929C12.6213 16.929 13.125 17.436 13.125 18.0613Z" fill="#FFCA28"/>
</svg>
